<?xml version="1.0" encoding="UTF-8"?>
<!DOCTYPE svg PUBLIC "-//W3C//DTD SVG 1.1//EN" "http://www.w3.org/Graphics/SVG/1.1/DTD/svg11.dtd">
<!-- Creator: CorelDRAW X7 -->
<svg xmlns="http://www.w3.org/2000/svg" xml:space="preserve" width="62.3955mm" height="36.3705mm" version="1.1" style="shape-rendering:geometricPrecision; text-rendering:geometricPrecision; image-rendering:optimizeQuality; fill-rule:evenodd; clip-rule:evenodd"
viewBox="0 0 963 561"
 xmlns:xlink="http://www.w3.org/1999/xlink">
 <defs>
  <style type="text/css">
   <![CDATA[
    .str0 {stroke:#2B2A29;stroke-width:1.17627;stroke-linecap:round;stroke-linejoin:round}
    .fil0 {fill:#2B2A29}
    .fil1 {fill:#5F9ABB}
    .fil4 {fill:#7553A2}
    .fil5 {fill:#89C540}
    .fil3 {fill:#B7BEC0}
    .fil2 {fill:#F2AA1E}
   ]]>
  </style>
 </defs>
 <g id="Layer_x0020_1">
  <metadata id="CorelCorpID_0Corel-Layer"/>
  <g id="_392772373024">
   <path class="fil0" d="M140 355l-76 -147 -64 0 135 269 6 0 114 -221 44 0 0 201 60 0 0 -249 -142 0 -77 147zm257 -147l0 53 111 0 -125 196 210 0 0 -54 -110 0 123 -195 -209 0zm231 249l60 0 0 -249 -60 0 0 249zm92 -249l0 53 79 0 0 196 60 0 0 -196 79 0 0 -53 -218 0z"/>
   <path class="fil0 str0" d="M331 527c-1,0 -2,-1 -3,-2 -1,-1 -3,-1 -4,-2 1,0 2,-1 3,-1 1,-1 2,-1 3,-2 0,-1 1,-3 1,-4 0,-1 1,-2 1,-3 0,-3 -1,-5 -2,-6 0,-2 -1,-3 -2,-4 -2,-1 -4,-2 -5,-2 -3,-1 -5,-1 -7,-1 -15,0 -15,0 -15,0 0,49 0,49 0,49 17,0 17,0 17,0 2,0 4,0 6,-1 2,-1 4,-2 5,-2 1,-2 3,-3 3,-5 1,-1 2,-3 2,-6 0,-1 -1,-2 -1,-4 -1,-1 -1,-2 -2,-4l0 0zm-26 -24c11,0 11,0 11,0 4,0 7,1 8,3 3,1 4,3 4,7 0,3 -1,5 -3,7 -2,1 -5,2 -8,2 -12,0 -12,0 -12,0l0 -19zm24 37c-1,1 -2,2 -3,3 -1,1 -2,1 -3,2 -2,1 -4,1 -5,1 -13,0 -13,0 -13,0 0,-20 0,-20 0,-20 13,0 13,0 13,0 2,0 4,0 5,0 1,1 3,1 4,2 1,1 1,2 2,4 0,1 1,2 1,3 0,2 -1,3 -1,5l0 0zm49 -40c-5,0 -5,0 -5,0 -14,21 -14,21 -14,21 -14,-21 -14,-21 -14,-21 -5,0 -5,0 -5,0 16,24 16,24 16,24 -17,25 -17,25 -17,25 5,0 5,0 5,0 15,-22 15,-22 15,-22 14,22 14,22 14,22 5,0 5,0 5,0 -17,-25 -17,-25 -17,-25l17 -24zm39 5c-2,-2 -4,-3 -6,-4 -3,-1 -5,-2 -8,-2 -3,0 -6,1 -8,2 -2,1 -5,2 -6,4 -2,3 -3,5 -4,8 -1,2 -2,6 -2,9 0,5 0,5 0,5 0,4 1,7 2,9 1,3 2,6 4,8 1,2 4,3 6,4 2,1 5,2 8,2 3,0 5,-1 8,-2 2,-1 4,-2 6,-4 2,-2 2,-5 3,-8 1,-2 2,-5 2,-9 0,-5 0,-5 0,-5 0,-3 -1,-7 -2,-9 -1,-3 -1,-5 -3,-8l0 0zm1 22c0,3 0,6 -1,8 -1,2 -2,5 -3,6 -1,2 -3,3 -5,4 -2,1 -4,1 -6,1 -3,0 -5,0 -7,-1 -2,-1 -3,-2 -4,-4 -2,-1 -3,-4 -4,-6 0,-2 -1,-5 -1,-8 0,-5 0,-5 0,-5 0,-3 1,-6 1,-8 1,-2 2,-4 4,-6 1,-2 2,-3 4,-4 2,-1 4,-1 7,-1 2,0 4,0 6,1 2,1 4,2 5,4 1,2 2,4 3,6 1,2 1,5 1,8l0 5zm50 -27c-27,0 -27,0 -27,0 -1,18 -1,18 -1,18 -1,3 -1,5 -1,8 -1,2 -1,4 -1,7 -1,1 -2,3 -2,5 -1,1 -2,2 -2,3 -1,1 -1,2 -2,3 0,1 -1,1 -1,2 -4,0 -4,0 -4,0 0,15 0,15 0,15 5,0 5,0 5,0 0,-12 0,-12 0,-12 37,0 37,0 37,0 0,12 0,12 0,12 4,0 4,0 4,0 0,-15 0,-15 0,-15 -5,0 -5,0 -5,0l0 -46zm-4 46c-28,0 -28,0 -28,0 1,-2 2,-3 2,-5 1,-2 2,-4 3,-6 1,-2 1,-5 2,-8 1,-3 1,-6 1,-9 1,-15 1,-15 1,-15 19,0 19,0 19,0l0 43zm50 -24c-28,0 -28,0 -28,0 0,-22 0,-22 0,-22 -4,0 -4,0 -4,0 0,49 0,49 0,49 4,0 4,0 4,0 0,-23 0,-23 0,-23 28,0 28,0 28,0 0,23 0,23 0,23 4,0 4,0 4,0 0,-49 0,-49 0,-49 -4,0 -4,0 -4,0l0 22zm45 3c-1,-1 -2,-2 -5,-3 -1,-1 -4,-1 -7,-1 -12,0 -12,0 -12,0 0,-21 0,-21 0,-21 -4,0 -4,0 -4,0 0,49 0,49 0,49 16,0 16,0 16,0 3,0 6,0 7,-1 3,-1 4,-2 5,-3 2,-1 3,-3 4,-4 1,-2 1,-4 1,-6 0,-2 0,-4 -1,-6 -1,-1 -2,-2 -4,-4l0 0zm0 14c0,1 -1,2 -2,3 -1,1 -3,2 -4,3 -1,0 -3,1 -6,1 -12,0 -12,0 -12,0 0,-21 0,-21 0,-21 12,0 12,0 12,0 3,0 5,0 6,1 1,0 3,1 4,2 1,1 2,2 2,3 0,2 0,3 0,4 0,1 0,3 0,4l0 0zm13 10c4,0 4,0 4,0 0,-49 0,-49 0,-49 -4,0 -4,0 -4,0l0 49zm21 -23c23,0 23,0 23,0 0,-4 0,-4 0,-4 -23,0 -23,0 -23,0 0,-19 0,-19 0,-19 27,0 27,0 27,0 0,-3 0,-3 0,-3 -31,0 -31,0 -31,0 0,49 0,49 0,49 31,0 31,0 31,0 0,-3 0,-3 0,-3 -27,0 -27,0 -27,0l0 -20zm89 -26c-27,0 -27,0 -27,0 -1,18 -1,18 -1,18 0,3 0,5 -1,8 0,2 -1,4 -1,7 -1,1 -2,3 -2,5 -1,1 -2,2 -2,3 0,1 -1,2 -2,3 0,1 -1,1 -1,2 -3,0 -3,0 -3,0 0,15 0,15 0,15 4,0 4,0 4,0 0,-12 0,-12 0,-12 37,0 37,0 37,0 0,12 0,12 0,12 4,0 4,0 4,0 0,-15 0,-15 0,-15 -5,0 -5,0 -5,0l0 -46zm-4 46c-28,0 -28,0 -28,0 1,-2 2,-3 3,-5 1,-2 1,-4 2,-6 1,-2 1,-5 2,-8 0,-3 1,-6 1,-9 1,-15 1,-15 1,-15 19,0 19,0 19,0l0 43zm48 -19c-1,0 -2,-1 -3,-2 -1,-1 -3,-1 -4,-2 1,0 2,-1 3,-1 1,-1 2,-1 2,-2 1,-1 2,-3 2,-4 0,-1 1,-2 1,-3 0,-3 -1,-5 -2,-6 0,-2 -1,-3 -3,-4 -1,-1 -3,-2 -5,-2 -2,-1 -4,-1 -6,-1 -15,0 -15,0 -15,0 0,49 0,49 0,49 16,0 16,0 16,0 3,0 5,0 7,-1 2,-1 4,-2 5,-2 1,-2 2,-3 3,-5 1,-1 1,-3 1,-6 0,-1 0,-2 0,-4 -1,-1 -1,-2 -2,-4l0 0zm-26 -24c11,0 11,0 11,0 3,0 7,1 8,3 2,1 3,3 3,7 0,3 -1,5 -3,7 -1,1 -4,2 -8,2 -11,0 -11,0 -11,0l0 -19zm24 37c-1,1 -2,2 -3,3 -1,1 -2,1 -3,2 -2,1 -4,1 -6,1 -12,0 -12,0 -12,0 0,-20 0,-20 0,-20 13,0 13,0 13,0 2,0 4,0 5,0 1,1 2,1 3,2 1,1 2,2 3,4 0,1 0,2 0,3 0,2 0,3 0,5l0 0zm19 -14c23,0 23,0 23,0 0,-4 0,-4 0,-4 -23,0 -23,0 -23,0 0,-19 0,-19 0,-19 26,0 26,0 26,0 0,-3 0,-3 0,-3 -31,0 -31,0 -31,0 0,49 0,49 0,49 31,0 31,0 31,0 0,-3 0,-3 0,-3 -26,0 -26,0 -26,0l0 -20zm64 -22c-1,-1 -3,-2 -5,-3 -2,-1 -4,-1 -7,-1 -17,0 -17,0 -17,0 0,49 0,49 0,49 4,0 4,0 4,0 0,-20 0,-20 0,-20 13,0 13,0 13,0 3,0 5,0 7,-1 2,-1 4,-1 5,-3 2,-1 3,-3 3,-4 1,-2 2,-4 2,-7 0,-1 -1,-4 -2,-6 0,-1 -1,-3 -3,-4l0 0zm0 15c-1,1 -1,2 -3,3 -1,1 -2,2 -4,3 -1,0 -3,1 -5,1 -13,0 -13,0 -13,0 0,-23 0,-23 0,-23 13,0 13,0 13,0 2,0 4,1 5,1 2,1 3,2 4,3 2,1 2,2 3,3 0,2 0,3 0,4 0,2 0,4 0,5l0 0zm46 -19c-28,42 -28,42 -28,42 0,-42 0,-42 0,-42 -4,0 -4,0 -4,0 0,49 0,49 0,49 4,0 4,0 4,0 28,-42 28,-42 28,-42 0,42 0,42 0,42 4,0 4,0 4,0 0,-49 0,-49 0,-49l-4 0z"/>
   <path class="fil1" d="M463 107c4,-11 14,-18 25,-19 0,-1 0,-1 0,-1 53,0 53,0 53,0 -7,-12 -18,-21 -32,-26 -30,-10 -64,6 -74,36 -2,6 -3,12 -3,18 30,0 30,0 30,0 0,-2 0,-5 1,-8l0 0zm56 10c0,3 0,6 -1,9 -5,13 -18,20 -31,19 0,1 0,1 0,1 -47,0 -47,0 -47,0 7,12 17,21 31,25 31,11 64,-6 75,-36 2,-6 3,-12 3,-18l-30 0z"/>
   <path class="fil2" d="M316 58c-32,0 -58,26 -58,58 0,22 12,41 29,51 0,-46 0,-46 0,-46 1,0 1,0 1,0 -1,-1 -1,-3 -1,-5 0,-15 13,-28 29,-28 16,0 29,13 29,28 0,16 -13,29 -29,29 -1,0 -2,0 -3,0 0,30 0,30 0,30 1,0 2,0 3,0 33,0 59,-26 59,-59 0,-32 -26,-58 -59,-58l0 0z"/>
   <path class="fil3" d="M657 58c-32,0 -58,26 -58,58 0,33 26,59 58,59 33,0 59,-26 59,-59 0,-32 -26,-58 -59,-58l0 0zm0 87c-15,0 -28,-13 -28,-29 0,-15 13,-28 28,-28 16,0 29,13 29,28 0,16 -13,29 -29,29l0 0z"/>
   <path class="fil4" d="M144 58c-1,0 -2,0 -3,0 0,30 0,30 0,30 1,0 2,0 3,0 15,0 28,13 28,28 0,1 0,2 0,3 30,0 30,0 30,0 0,-1 0,-2 0,-3 0,-32 -26,-58 -58,-58l0 0zm0 87c0,0 0,0 0,0 -1,0 -1,0 -1,0 0,0 0,0 0,0 -16,0 -28,-13 -28,-29 0,-1 0,-3 0,-4 0,0 0,0 0,0 0,-47 0,-47 0,-47 -18,11 -30,30 -30,51 0,33 26,59 59,59 21,0 40,-12 51,-30 -51,0 -51,0 -51,0l0 0z"/>
   <path class="fil5" d="M879 32c-8,14 -9,22 -8,25 -4,4 -8,8 -12,13 -9,-7 -21,-12 -34,-12 -32,-1 -59,25 -59,57 -1,33 25,59 57,60 25,0 47,-15 55,-36 -35,-1 -35,-1 -35,-1 -5,4 -12,7 -19,7 -16,0 -29,-13 -29,-29 1,-16 14,-29 30,-28 9,0 17,4 22,11 -25,0 -25,0 -25,0 -1,16 -1,16 -1,16 34,1 34,1 34,1 0,0 0,0 0,0 28,0 28,0 28,0 0,-16 -7,-32 -19,-42 2,-4 6,-8 10,-11 3,2 12,7 30,6 33,-2 52,-46 59,-69 -28,21 -60,-4 -84,32l0 0z"/>
  </g>
 </g>
</svg>
